# xmcd
#
# Track frame offsets: 
#        150
#        12083
#        23856
#        38486
#        50394
#        63151
#        76377
#        88121
#        101719
#        116869
#        127490
#        140353
#        153083
#        162569
#        173742
#        185025
#        199978
#        212239
#
# Disc length: 3039 seconds
#
# Revision: 1
# Processed by: cddbd v1.5.2PL0 Copyright (c) Steve Scherf et al.
# Submitted via: ExactAudioCopy v1.1
#
DISCID=fd0bdd12
DTITLE=Johnny 'Guitar' Watson - The Best Of The Modern Years
DYEAR=2005
DGENRE=Blues
TTITLE0=Hot Little Mama (mono)
TTITLE1=I Love To Love You (mono)
TTITLE2=Don't Touch Me (mono)
TTITLE3=Too Tired (mono)
TTITLE4=Those Lonely, Lonely Nights (mono)
TTITLE5=Someone Cares For Me (mono)
TTITLE6=Oh Baby (mono)
TTITLE7=Give A Little (mono)
TTITLE8=Three Hours Past Midnight (mono)
TTITLE9=Ruben (mono)
TTITLE10=Love Me, Baby (mono)
TTITLE11=She Moves Me (mono)
TTITLE12=Love Bandit (Gangster Of Love) (mono)
TTITLE13=Cordella De Milo and Johnny 'Guitar' Watson - Lonely Girl (mono
TTITLE13=)
TTITLE14=Cordella De Milo and Johnny 'Guitar' Watson - Ain't Gonna Hush 
TTITLE14=(mono)
TTITLE15=Hot Little Mama (alt - take 1) (mono)
TTITLE16=I Love To Love You (alt - take 1) (mono)
TTITLE17=Three Hours Past Midnight (alt - take 2) (mono)
EXTD=YEAR: 2005
EXTT0=
EXTT1=
EXTT2=
EXTT3=
EXTT4=
EXTT5=
EXTT6=
EXTT7=
EXTT8=
EXTT9=
EXTT10=
EXTT11=
EXTT12=
EXTT13=
EXTT14=
EXTT15=
EXTT16=
EXTT17=
PLAYORDER=
